<?xml version="1.0" standalone="no"?>
<!DOCTYPE svg PUBLIC "-//W3C//DTD SVG 1.1//EN" "http://www.w3.org/Graphics/SVG/1.1/DTD/svg11.dtd" >
<svg xmlns="http://www.w3.org/2000/svg">
<metadata></metadata>
<defs>
<font id="AvantGardeMdBTMedium" horiz-adv-x="1024" >
<font-face units-per-em="2048" ascent="1638" descent="-410" />
<missing-glyph horiz-adv-x="586" />
<glyph horiz-adv-x="0" />
<glyph horiz-adv-x="2048" />
<glyph unicode="&#xd;" horiz-adv-x="586" />
<glyph unicode=" "  horiz-adv-x="586" />
<glyph unicode="&#x09;" horiz-adv-x="586" />
<glyph unicode="&#xa0;" horiz-adv-x="586" />
<glyph unicode="!" horiz-adv-x="594" d="M199 0v233h196v-233h-196zM199 360v1096h196v-1096h-196z" />
<glyph unicode="&#x22;" horiz-adv-x="614" d="M90 881v555h139v-555h-139zM385 881v555h139v-555h-139z" />
<glyph unicode="#" horiz-adv-x="1575" d="M88 449l53 147h310l92 262h-330l51 146h332l162 454h166l-162 -454h256l164 454h164l-160 -454h301l-51 -146h-303l-93 -262h322l-51 -147h-322l-162 -453h-165l161 453h-258l-162 -453h-165l159 453h-309zM616 594h261l92 264h-260z" />
<glyph unicode="$" horiz-adv-x="1171" d="M136 432h185q12 -239 242 -239q105 0 167.5 64t62.5 171q0 77 -29 125q-47 77 -194 112l-36 9q-183 47 -269.5 138t-86.5 243.5t82.5 258.5t226.5 132v211h179v-213q129 -20 207 -116.5t87 -248.5h-192q-6 86 -59 136.5t-141 50.5t-142.5 -56t-54.5 -149q0 -68 39.5 -114 t144 -69t145.5 -38q143 -51 217 -150t74 -255.5t-90.5 -278.5t-234.5 -142v-256h-179v246q-161 22 -255.5 136.5t-95.5 291.5z" />
<glyph unicode="%" horiz-adv-x="1796" d="M82 1126q0 150 104 254q105 105 254 105q151 0 254 -105q105 -103 105 -254q0 -147 -105 -254q-104 -104 -254 -104q-148 0 -254 104q-104 106 -104 254zM240 1126.5q0 -82.5 57.5 -139.5t140.5 -57t140 56.5t57 139.5t-57 140t-140 57t-140.5 -57t-57.5 -139.5zM436 -31 l781 1516h141l-776 -1516h-146zM997 330q0 149 105 254q104 104 254 104q148 0 254 -104q104 -106 104 -254q0 -150 -104 -254q-105 -105 -254 -105q-151 0 -254 105q-105 103 -105 254zM1155 329.5q0 -82.5 58 -140.5t140.5 -58t139.5 57.5t57 141t-56.5 140t-140 56.5 t-141 -57t-57.5 -139.5z" />
<glyph unicode="&#x26;" horiz-adv-x="1421" d="M131 406q0 127 66 227.5t209 189.5q-168 132 -168 291.5t101.5 260t246 100.5t244.5 -102.5t100 -239.5q0 -198 -232 -328l222 -209l141 362h213l-199 -499l342 -307l-127 -144l-297 266q-163 -303 -434 -303q-176 0 -302 128t-126 307zM336 403.5q0 -93.5 63 -159.5 t155 -66q180 0 286 234l-301 284q-106 -61 -154.5 -130t-48.5 -162.5zM434 1135.5q0 -62.5 30 -109.5t105 -104q164 85 164 208q0 64 -42.5 109t-105.5 45t-107 -43t-44 -105.5z" />
<glyph unicode="'" horiz-adv-x="317" d="M90 881v555h139v-555h-139z" />
<glyph unicode="(" horiz-adv-x="569" d="M125 195v679q0 230 95.5 379.5t295.5 231.5v-244q-101 -51 -142.5 -134t-41.5 -265v-590q0 -206 41 -296t143 -146v-238q-211 86 -301 227.5t-90 395.5z" />
<glyph unicode=")" horiz-adv-x="569" d="M51 -190q103 56 145 147.5t42 294.5v590q0 179 -42 263t-145 136v244q201 -83 297 -232.5t96 -378.5v-679q0 -253 -90.5 -395t-302.5 -228v238z" />
<glyph unicode="*" d="M109 1098l53 157l272 -94v295h154v-295l274 94l56 -157l-289 -78l196 -244l-135 -96l-178 254l-176 -254l-137 94l194 246z" />
<glyph unicode="+" horiz-adv-x="1706" d="M254 541v139h528v541h142v-541h528v-139h-528v-541h-142v541h-528z" />
<glyph unicode="," horiz-adv-x="586" d="M195 12v234h196v-215q0 -121 -47.5 -187t-148.5 -86v125q37 8 53 33t16 76v20h-69z" />
<glyph unicode="-" horiz-adv-x="678" d="M90 457v184h498v-184h-498z" />
<glyph unicode="." horiz-adv-x="586" d="M193 0v246h200v-246h-200z" />
<glyph unicode="/" horiz-adv-x="569" d="M-57 -190l479 1675h147l-477 -1675h-149z" />
<glyph unicode="0" horiz-adv-x="1171" d="M88 512v430q0 135 20.5 208.5t67.5 135.5q150 197 410 197q270 0 420 -211q77 -112 77 -322v-444q0 -222 -75 -326q-150 -209 -422 -209q-258 0 -414 197q-84 107 -84 344zM305 453q0 -114 36 -166.5t100.5 -83.5t140.5 -31q282 0 282 311v488q0 91 -8 127 q-22 101 -129 152q-65 32 -142 32q-161 0 -241 -113q-39 -54 -39 -196v-520z" />
<glyph unicode="1" horiz-adv-x="1171" d="M244 1284v172h467v-1456h-213v1284h-254z" />
<glyph unicode="2" horiz-adv-x="1171" d="M123 0v203l518 497q201 194 201 314t-75 195t-192.5 75t-185 -77t-67.5 -214v-16h-199v4q0 227 130 364.5t331.5 137.5t333 -132.5t131.5 -320.5q0 -106 -49.5 -201t-161.5 -200l-453 -426h659v-203h-921z" />
<glyph unicode="3" horiz-adv-x="1171" d="M104 446h197q5 -123 79 -200.5t189.5 -77.5t196 81.5t80.5 209t-82.5 202t-233.5 74.5l-51 -1v197l43 -1q226 0 226 182q0 77 -48 127.5t-124.5 50.5t-123.5 -47t-51 -131h-192q6 170 109 271.5t261 101.5t263.5 -106t105.5 -268t-141 -259q117 -46 179.5 -147t62.5 -242 q0 -208 -135.5 -350t-344 -142t-334.5 126.5t-131 348.5z" />
<glyph unicode="4" horiz-adv-x="1171" d="M88 254v186l641 1016h203v-1016h147v-186h-147v-254h-203v254h-641zM293 440h436v715z" />
<glyph unicode="5" horiz-adv-x="1171" d="M78 444h205q16 -122 95.5 -195t203.5 -73t211.5 90t87.5 227t-86 221.5t-226 84.5q-169 0 -243 -125l-181 39l136 743h673v-205h-524l-70 -342q98 90 248 90q204 0 344 -147t140 -364.5t-151.5 -367t-372 -149.5t-350 127.5t-140.5 345.5z" />
<glyph unicode="6" horiz-adv-x="1171" d="M80 462.5q0 192.5 217 515.5v1l319 477h232l-330 -495q62 24 113 24q190 0 324.5 -143.5t134.5 -345.5q0 -137 -72 -266q-143 -259 -436 -259q-209 0 -355 148q-147 151 -147 343.5zM279 492q0 -128 88.5 -222t216 -94t212.5 87.5t85 223.5t-83.5 223t-211.5 87 t-217.5 -88.5t-89.5 -216.5z" />
<glyph unicode="7" horiz-adv-x="1171" d="M197 1255v201h819v-221l-533 -1235h-223l555 1255h-618z" />
<glyph unicode="8" horiz-adv-x="1171" d="M133 438q0 260 215 369q-151 104 -151 277t112 286t276.5 113t277 -111.5t112.5 -287.5t-158 -277q221 -97 221 -361q0 -207 -129 -341t-324 -134t-323.5 135.5t-128.5 331.5zM332 441q0 -118 71 -194.5t180 -76.5t182 75t73 193t-69.5 191t-183.5 73t-183.5 -71.5 t-69.5 -189.5zM403 1095.5q0 -86.5 49 -140.5t133.5 -54t133.5 51.5t49 140t-50.5 143t-130 54.5t-132 -54t-52.5 -140.5z" />
<glyph unicode="9" horiz-adv-x="1171" d="M78 958q0 139 71.5 267t184 194t234.5 66q228 0 372 -148q150 -154 150 -344.5t-210 -504.5l-325 -488h-236l330 494q-60 -25 -112 -25q-191 0 -325 143.5t-134 345.5zM287 970q0 -138 83.5 -224.5t213 -86.5t218.5 87t89 216t-88 222.5t-219 93.5t-214 -85t-83 -223z " />
<glyph unicode=":" horiz-adv-x="592" d="M195 0v246h202v-246h-202zM195 807v246h202v-246h-202z" />
<glyph unicode=";" horiz-adv-x="592" d="M197 10v236h200v-217q0 -233 -198 -271v125q37 8 53 32.5t16 74.5v20h-71zM197 807v246h200v-246h-200z" />
<glyph unicode="&#x3c;" horiz-adv-x="1706" d="M264 547v129l1178 483v-153l-969 -396l969 -393v-154z" />
<glyph unicode="=" horiz-adv-x="1706" d="M254 342v139h1198v-139h-1198zM254 739v140h1198v-140h-1198z" />
<glyph unicode="&#x3e;" horiz-adv-x="1706" d="M264 63v154l971 393l-971 396v153l1178 -483v-129z" />
<glyph unicode="?" horiz-adv-x="995" d="M23 1036q3 197 126 323t308.5 126t310.5 -122t125 -297q0 -183 -188 -371q-87 -90 -118 -157.5t-37 -156.5h-201q2 207 140 375q23 27 70 73q121 119 121 225t-65.5 171t-168 65t-163.5 -69t-64 -184zM348 0v236h197v-236h-197z" />
<glyph unicode="@" horiz-adv-x="2048" d="M106 522q0 334 203 582q146 178 351.5 270t455.5 92q163 0 310 -45t265 -136t185.5 -222t67.5 -294.5t-63.5 -303.5t-184.5 -236q-141 -112 -316 -112q-200 0 -200 157v19q-108 -174 -301 -174q-153 0 -233.5 85t-80.5 247q0 235 138 394t339 159q170 0 242 -150l57 115 h132l-146 -576q-8 -32 -8 -59q0 -94 100 -94q101 0 195 89q184 174 184 433t-190.5 420t-499.5 161q-264 0 -456 -114t-297 -299.5t-105 -386t61.5 -331.5t192.5 -230q208 -160 539 -160t606 190l55 -82q-297 -223 -664 -223q-383 0 -628 187q-306 234 -306 628zM725 446 q0 -105 48.5 -162t141.5 -57t170.5 69t104.5 179l59 236q-17 88 -68.5 136t-129.5 48q-138 0 -232 -130t-94 -319z" />
<glyph unicode="A" horiz-adv-x="1233" d="M-63 0l569 1456h205l569 -1456h-231l-160 424h-565l-164 -424h-223zM399 629h414l-205 553z" />
<glyph unicode="B" horiz-adv-x="1053" d="M127 0v1456h313q233 0 354 -102t121 -290t-155 -280q107 -32 169 -123t62 -205q0 -226 -143 -352q-66 -56 -149.5 -80t-235.5 -24h-336zM334 197h166q146 0 215 54.5t69 173.5t-72 183t-212 64h-166v-475zM336 846h67q163 0 232.5 49.5t69.5 163.5q0 198 -256 198h-113 v-411z" />
<glyph unicode="C" horiz-adv-x="1540" d="M61 737q0 309 228 537q215 211 514 211q224 0 393.5 -106t255.5 -300h-248q-141 195 -403 195q-213 0 -361 -152q-75 -77 -117 -179t-42 -212t38 -211.5t111 -177.5t171 -119t200 -43q257 0 391 185h260q-95 -191 -262.5 -292.5t-388.5 -101.5q-329 0 -551 250 q-189 209 -189 516z" />
<glyph unicode="D" horiz-adv-x="1384" d="M117 0v1456h469q328 0 529.5 -203t201.5 -530q0 -186 -75.5 -339t-217.5 -255q-96 -69 -205 -99t-293 -30h-409zM322 195h256q243 0 384.5 141.5t141.5 389t-150 389.5t-415 142h-217v-1062z" />
<glyph unicode="E" horiz-adv-x="1014" d="M127 0v1456h756v-194h-545v-435h545v-190h-545v-436h545v-201h-756z" />
<glyph unicode="F" horiz-adv-x="977" d="M123 0v1456h717v-194h-508v-435h508v-190h-508v-637h-209z" />
<glyph unicode="G" horiz-adv-x="1612" d="M61 737q0 313 228 537q211 211 528 211q221 0 387.5 -103.5t251.5 -294.5h-260q-145 187 -395 187q-213 0 -361 -152q-75 -77 -117 -179t-42 -212t38 -211.5t111 -177.5t171 -119t200 -43q336 0 502 350h-660v205h901q-15 -341 -221 -552.5t-522 -211.5q-329 0 -551 250 q-189 209 -189 516z" />
<glyph unicode="H" horiz-adv-x="1270" d="M127 0v1456h211v-618h594v618h211v-1456h-211v631h-594v-631h-211z" />
<glyph unicode="I" horiz-adv-x="465" d="M127 0v1456h211v-1456h-211z" />
<glyph unicode="J" horiz-adv-x="905" d="M4 329l208 1q22 -162 171 -162q110 0 152.5 65.5t42.5 294.5v928h210v-956q0 -154 -14 -226q-36 -178 -192 -258q-89 -45 -203 -45q-171 0 -271.5 96.5t-103.5 261.5z" />
<glyph unicode="K" horiz-adv-x="1118" d="M127 0v1456h211v-1456h-211zM346 723l549 733h254l-565 -723l551 -733h-265z" />
<glyph unicode="L" horiz-adv-x="858" d="M127 0v1456h211v-1255h477v-201h-688z" />
<glyph unicode="M" horiz-adv-x="1724" d="M127 0v1456h313l422 -1126l422 1126h309v-1456h-198l14 1264l-473 -1264h-150l-471 1264l15 -1264h-203z" />
<glyph unicode="N" horiz-adv-x="1384" d="M127 0v1456h217l715 -1102l-10 1102h208v-1456h-202l-731 1135l14 -1135h-211z" />
<glyph unicode="O" horiz-adv-x="1612" d="M61 738q0 312 228 536q215 211 514 211q305 0 522 -213q223 -219 223 -535q0 -312 -192 -520q-228 -246 -555 -246q-329 0 -551 250q-189 209 -189 517zM281 731q0 -110 38 -211.5t111 -177.5t171 -119t200 -43q226 0 378 160.5t152 398.5q0 204 -143 361 q-162 174 -387 174q-213 0 -361 -152q-75 -77 -117 -179t-42 -212z" />
<glyph unicode="P" horiz-adv-x="1053" d="M127 0v1456h338q143 0 217 -14q186 -35 276 -198q54 -99 54 -214q0 -203 -137 -323.5t-371 -120.5h-168v-586h-209zM336 780h153q163 0 236.5 57t73.5 181t-74.5 184t-228.5 60h-160v-482z" />
<glyph unicode="Q" horiz-adv-x="1612" d="M61 721q0 325 228 553q215 211 514 211q305 0 522 -213q225 -223 225 -553q0 -282 -182 -490q78 -36 168 -36h27v-203h-19q-162 0 -336 100q-184 -119 -405 -119q-260 0 -461 160q-136 110 -208.5 266t-72.5 324zM279 727q0 -68 22 -152q92 48 247.5 48t320 -72 t311.5 -207q79 89 115 182.5t36 203.5q0 217 -143 370q-160 174 -387 174q-213 0 -361 -152q-161 -163 -161 -395zM375 414q78 -112 192 -173t246 -61q95 0 207 45q-229 211 -502 211q-75 0 -143 -22z" />
<glyph unicode="R" horiz-adv-x="1157" d="M127 0v1456h420q262 0 400 -121t138 -350q0 -178 -115.5 -297.5t-297.5 -128.5l413 -559h-264l-483 676v-676h-211zM338 700h108q433 0 433 287q0 141 -92 207t-291 66h-158v-560z" />
<glyph unicode="S" horiz-adv-x="973" d="M50 420h189q5 -113 67 -180.5t166 -67.5t169.5 67.5t65.5 173.5t-48 160t-201 101q-280 70 -348 272q-18 56 -18 119q0 187 111 302.5t284.5 115.5t276 -103.5t113.5 -283.5h-197q-5 87 -58.5 140.5t-137.5 53.5t-138.5 -59.5t-54.5 -153.5q0 -67 42 -117t183 -87 q65 -17 100 -29q293 -110 293 -404q0 -211 -120 -340t-312 -129t-308.5 123.5t-118.5 325.5z" />
<glyph unicode="T" horiz-adv-x="786" d="M16 1260v196h756v-196h-272v-1260h-211v1260h-273z" />
<glyph unicode="U" horiz-adv-x="1157" d="M113 532v924h211v-926q0 -198 59 -275t197.5 -77t194.5 78.5t56 273.5v926h211v-924q0 -148 -16.5 -227t-54.5 -137q-130 -197 -383 -197q-140 0 -236 47t-166 148q-39 58 -56 130t-17 236z" />
<glyph unicode="V" horiz-adv-x="1161" d="M-43 1456h223l400 -1085l401 1085h221l-559 -1456h-125z" />
<glyph unicode="W" horiz-adv-x="1726" d="M-31 1456h215l316 -1122l284 1122h158l283 -1122l315 1122h215l-440 -1456h-191l-262 1087l-264 -1087h-188z" />
<glyph unicode="X" horiz-adv-x="1200" d="M-6 0l485 735l-473 721h246l348 -563l344 563h250l-473 -721l483 -735h-246l-358 569l-362 -569h-244z" />
<glyph unicode="Y" horiz-adv-x="1010" d="M-49 1456h235l320 -700l319 700h234l-451 -932v-524h-211v537z" />
<glyph unicode="Z" horiz-adv-x="973" d="M39 0v207l637 1044h-596v205h840v-184l-660 -1071h672v-201h-893z" />
<glyph unicode="[" horiz-adv-x="569" d="M125 -414v1870h385v-160h-193v-1548h193v-162h-385z" />
<glyph unicode="\" horiz-adv-x="569" d="M0 1485h147l480 -1675h-148z" />
<glyph unicode="]" horiz-adv-x="569" d="M59 -252h191v1548h-191v160h385v-1870h-385v162z" />
<glyph unicode="^" horiz-adv-x="2048" d="M420 901l510 557h186l510 -557h-180l-422 420l-424 -420h-180z" />
<glyph unicode="_" d="M0 -340h1024v-143h-1024v143z" />
<glyph unicode="`" d="M250 1589h201l204 -348h-120z" />
<glyph unicode="a" horiz-adv-x="1319" d="M61 555q0 239 158 403q162 170 397 170t390 -161v133h200v-1100h-200v135q-154 -160 -385.5 -160t-395.5 165.5t-164 414.5zM266 553q0 -163 110.5 -276t263.5 -113t264.5 113.5t111.5 270.5t-110.5 272.5t-264.5 115.5t-264.5 -110t-110.5 -273z" />
<glyph unicode="b" horiz-adv-x="1319" d="M111 0v1456h198v-489q159 161 383 161q244 0 406 -170q159 -165 159 -408.5t-164 -409t-396 -165.5t-386 160v-135h-200zM303 548.5q0 -157.5 111.5 -271t264 -113.5t262.5 112.5t110 275.5t-111 273.5t-264.5 110.5t-263 -115t-109.5 -272.5z" />
<glyph unicode="c" horiz-adv-x="1241" d="M57 550q0 230 156 398q173 185 418 185q189 0 328 -104.5t202 -293.5h-217q-103 201 -330 201q-147 0 -249.5 -111t-102.5 -275t104 -274t259 -110q104 0 188 54.5t131 154.5h217q-69 -199 -205 -301.5t-331 -102.5q-242 0 -404 170q-77 81 -120.5 188.5t-43.5 220.5z " />
<glyph unicode="d" horiz-adv-x="1319" d="M61 555q0 239 158 403q162 170 396 170t393 -161v489h198v-1456h-200v135q-154 -160 -385.5 -160t-395.5 165.5t-164 414.5zM266 553q0 -163 110.5 -276t263.5 -113t264.5 113.5t111.5 270.5t-110.5 272.5t-264.5 115.5t-264.5 -110t-110.5 -273z" />
<glyph unicode="e" horiz-adv-x="1245" d="M55 553q0 231 156 399q165 181 410 181q145 0 269.5 -67.5t205.5 -188.5q94 -147 94 -369v-31h-926q25 -138 124.5 -223.5t236.5 -85.5q98 0 178.5 47t128.5 133h223q-76 -183 -212.5 -280t-317.5 -97q-242 0 -406 172q-77 81 -120.5 188.5t-43.5 221.5zM270 655h703 q-37 136 -128 210.5t-219.5 74.5t-224 -76.5t-131.5 -208.5z" />
<glyph unicode="f" horiz-adv-x="569" d="M41 928v172h125v33q0 340 375 340v-183h-17q-88 0 -126 -40t-38 -134v-16h181v-172h-172v-928h-197v928h-131z" />
<glyph unicode="g" horiz-adv-x="1319" d="M61 555q0 239 158 403q162 170 396 170t393 -161v133h198v-918q0 -287 -149 -449.5t-410 -162.5q-189 0 -323 89.5t-191 252.5h211q94 -158 291 -158q167 0 269 100.5t102 266.5v14q-154 -160 -385.5 -160t-395.5 165.5t-164 414.5zM266 553q0 -163 110.5 -276 t263.5 -113t264.5 113.5t111.5 270.5t-110.5 272.5t-264.5 115.5t-264.5 -110t-110.5 -273z" />
<glyph unicode="h" horiz-adv-x="1157" d="M117 0v1456h198v-481q97 143 300 143t314 -128t111 -359v-631h-198v567q0 183 -62 272t-190 89q-160 0 -234 -140q-22 -41 -31.5 -100t-9.5 -188v-500h-198z" />
<glyph unicode="i" horiz-adv-x="432" d="M117 0v1100h196v-1100h-196zM117 1229v227h196v-227h-196z" />
<glyph unicode="j" horiz-adv-x="455" d="M-6 -160q80 0 107.5 27.5t27.5 132.5v1100h197v-1110q0 -187 -67.5 -266.5t-221.5 -79.5l-43 2v194zM129 1229v227h197v-227h-197z" />
<glyph unicode="k" horiz-adv-x="977" d="M117 0v1456h196v-866l392 510h231l-404 -522l478 -578h-254l-443 559v-559h-196z" />
<glyph unicode="l" horiz-adv-x="432" d="M117 0v1456h196v-1456h-196z" />
<glyph unicode="m" horiz-adv-x="1778" d="M119 0v1100h176v-129q109 147 283 147q120 0 200 -46t131 -144q101 190 340 190q186 0 298 -121.5t112 -324.5v-672h-199v641q0 141 -61.5 219t-180.5 78t-175 -83t-56 -280v-575h-192v555q0 201 -57 292t-183 91t-187 -91.5t-61 -283.5v-563h-188z" />
<glyph unicode="n" horiz-adv-x="1176" d="M117 0v1100h190v-125q120 143 321.5 143t317 -127t115.5 -364v-627h-199v584q0 175 -65 259.5t-207 84.5t-208.5 -99.5t-66.5 -328.5v-500h-198z" />
<glyph unicode="o" horiz-adv-x="1241" d="M53 552q0 234 156 398q173 185 403 185q240 0 408 -170q168 -172 168 -402q0 -113 -40.5 -220t-119.5 -193q-165 -181 -405 -181q-242 0 -406 172q-77 81 -120.5 188.5t-43.5 222.5zM258 551.5q0 -165.5 104.5 -275.5t259 -110t258 110.5t103.5 277t-103.5 275.5 t-258 109t-259 -110.5t-104.5 -276z" />
<glyph unicode="p" horiz-adv-x="1319" d="M111 -356v1456h200v-135q155 159 386.5 159t395.5 -165t164 -414q0 -237 -159 -404q-162 -170 -395.5 -170t-393.5 162v-489h-198zM303 551.5q0 -157.5 109.5 -272.5t263 -115t264.5 110.5t111 273t-110 275.5t-262.5 113t-264 -113.5t-111.5 -271z" />
<glyph unicode="q" horiz-adv-x="1319" d="M61 551.5q0 242.5 164.5 407.5t396 165t386.5 -159v135h200v-1456h-200v489q-156 -162 -381 -162q-244 0 -406 170q-160 168 -160 410.5zM268 547q0 -163 110.5 -273t264.5 -110t263.5 115t109.5 272.5t-111.5 271t-264 113.5t-262.5 -113t-110 -276z" />
<glyph unicode="r" horiz-adv-x="592" d="M119 0v1100h186v-127q96 143 260 145v-207q-133 -10 -190.5 -78.5t-57.5 -220.5v-612h-198z" />
<glyph unicode="s" horiz-adv-x="797" d="M41 356h186q0 -87 48.5 -143.5t119.5 -56.5t115.5 42.5t44.5 104.5t-31.5 102t-78.5 59t-127.5 49t-125.5 67q-102 81 -102 224t93.5 237t231.5 94t221 -82.5t91 -231.5h-190q-5 61 -40 95t-91 34t-91.5 -36.5t-35.5 -90.5q0 -92 160 -151q45 -17 71 -27 q126 -51 179.5 -127t53.5 -213.5t-100 -235.5t-252.5 -98t-246.5 103t-103 282z" />
<glyph unicode="t" horiz-adv-x="563" d="M29 920v180h155v356h197v-356h156v-180h-156v-920h-197v920h-155z" />
<glyph unicode="u" horiz-adv-x="1157" d="M111 467v633h198v-576q0 -356 252 -356q161 0 236 141q22 42 31.5 100t9.5 187v504h196v-1100h-190v123q-116 -148 -310.5 -148t-308.5 129t-114 363z" />
<glyph unicode="v" horiz-adv-x="1014" d="M4 1100h213l289 -803l297 803h209l-441 -1100h-149z" />
<glyph unicode="w" horiz-adv-x="1460" d="M12 1100h211l226 -727l223 727h121l221 -727l227 727h209l-383 -1100h-111l-227 745l-225 -745h-111z" />
<glyph unicode="x" horiz-adv-x="934" d="M-20 0l372 571l-329 529h221l229 -377l234 377h229l-348 -522l352 -578h-221l-254 416l-266 -416h-219z" />
<glyph unicode="y" horiz-adv-x="1049" d="M6 1100h213l297 -819l322 819h213l-592 -1456h-209l153 387z" />
<glyph unicode="z" horiz-adv-x="825" d="M20 0v160l531 760h-467v180h666v-203l-496 -711h526v-186h-760z" />
<glyph unicode="{" d="M168 457v149l45 -2q130 0 184 60.5t54 207.5v246q0 148 22.5 210.5t72.5 93.5t113.5 43t169.5 12h37v-150h-41q-120 0 -161 -44.5t-41 -184.5v-242q0 -160 -44.5 -228t-156.5 -98q113 -28 157 -96t44 -229v-242q0 -141 41.5 -185t162.5 -44h39v-148h-43q-193 0 -260 41.5 t-89.5 104.5t-22.5 211v245q0 149 -54.5 210t-185.5 61z" />
<glyph unicode="|" d="M438 -483v2048h150v-2048h-150z" />
<glyph unicode="}" d="M160 -266h39q120 0 162 45t42 186v240q0 160 44.5 228t156.5 97q-112 30 -156.5 98t-44.5 228v242q0 140 -42 184.5t-162 44.5h-39v150h37q195 0 278 -52q55 -34 77.5 -96.5t22.5 -210.5v-246q0 -147 54 -207.5t184 -60.5l45 2v-149l-43 2q-132 0 -186 -60.5t-54 -210.5 v-245q0 -148 -22.5 -211t-71 -93t-109.5 -41.5t-169 -11.5h-43v148z" />
<glyph unicode="~" horiz-adv-x="1706" d="M178 451v155q212 144 387 144q134 0 338 -79q159 -57 240 -57q166 0 387 156v-156q-204 -141 -389 -141q-93 0 -256 58q-212 77 -322 77q-160 0 -385 -157z" />
<glyph unicode="&#xa1;" horiz-adv-x="594" d="M199 0v1096h196v-1096h-196zM199 1223v233h196v-233h-196z" />
<glyph unicode="&#xa2;" horiz-adv-x="1171" d="M59 725.5q0 215.5 123.5 373t329.5 199.5v211h168v-209q155 -20 265 -120t165 -271h-209q-94 203 -311 203q-141 0 -238.5 -111.5t-97.5 -277t99 -274.5t247 -109q102 0 180.5 54.5t120.5 154.5h209q-55 -172 -165 -275t-265 -127v-229h-168v232q-199 37 -326 198.5 t-127 377z" />
<glyph unicode="&#xa3;" horiz-adv-x="1171" d="M111 662v190h108q-43 96 -43 180q0 184 141.5 316.5t325.5 132.5t303 -103t154 -280h-215q-26 83 -89.5 130.5t-163 47.5t-170.5 -72.5t-71 -187.5q0 -76 43 -164h449v-190h-320q76 -145 76 -263.5t-74 -208.5q18 -4 51 -4h33q287 0 287 224q0 52 -14 110h204 q13 -58 13 -102q0 -120 -51 -217q-83 -160 -262 -191q-73 -12 -259 -12h-440v197h227q84 82 84 198q0 67 -24 128t-84 141h-219z" />
<glyph unicode="&#xa4;" horiz-adv-x="1241" d="M80 428l207 205q-84 104 -84 248t84 256l-207 206l82 80l205 -204q114 86 254 86t256 -86l204 204l82 -80l-205 -206q82 -110 82 -254.5t-82 -249.5l205 -205l-82 -82l-204 205q-115 -86 -255.5 -86t-254.5 86l-205 -205zM319 886.5q0 -125.5 89 -215t214.5 -89.5 t214.5 89.5t89 215t-89 214.5t-214.5 89t-214.5 -89t-89 -214.5z" />
<glyph unicode="&#xa5;" horiz-adv-x="1171" d="M35 1448h233l320 -696l315 696h232l-226 -461h170v-143h-239l-82 -166h321v-141h-391v-537h-209v537h-391v141h322l-82 166h-240v143h170z" />
<glyph unicode="&#xa6;" d="M438 -350v758h150v-758h-150zM438 674v758h150v-758h-150z" />
<glyph unicode="&#xa7;" d="M80 679.5q0 170.5 178 291.5q-92 76 -92 207.5t93.5 219t248.5 87.5t247.5 -85.5t92.5 -234.5v-10h-170q-3 81 -50.5 129.5t-123 48.5t-118 -36.5t-42.5 -96t39 -101.5t182 -118l176 -94q109 -58 156 -128t47 -165t-51 -171.5t-133 -111.5q102 -86 102 -220.5 t-101.5 -225t-260.5 -90.5t-254.5 91t-95.5 243v4h174v-11q0 -81 50.5 -126.5t135.5 -45.5t131.5 39t46.5 101t-45.5 110t-179.5 121l-182 98q-201 110 -201 280.5zM258 737q0 -56 34 -98t144 -104l221 -127q48 28 75.5 70.5t27.5 91.5q0 101 -178 198l-217 119 q-107 -63 -107 -150z" />
<glyph unicode="&#xa8;" d="M242 1300v209h184v-209h-184zM598 1300v209h184v-209h-184z" />
<glyph unicode="&#xa9;" horiz-adv-x="1706" d="M117 727q0 303 216 520t523 217t520 -215q104 -103 159.5 -238.5t55.5 -284.5q0 -306 -213 -515q-227 -221 -526 -221q-301 0 -518 219q-217 215 -217 518zM213 728q0 -260 190 -452q190 -188 451 -188q258 0 448.5 185.5t190.5 453t-184 453.5q-190 188 -455 188 q-264 0 -448 -184q-93 -93 -143 -211.5t-50 -244.5zM463 726q0 207 109 329.5t286 122.5q142 0 236.5 -75t105.5 -196h-147q-13 77 -66 118.5t-148.5 41.5t-155.5 -90.5t-60 -248.5t62 -245.5t173 -87.5q82 0 136.5 47t68.5 129h145q-9 -130 -107.5 -211t-264.5 -81 t-269.5 120t-103.5 327z" />
<glyph unicode="&#xaa;" horiz-adv-x="989" d="M47 1075q0 166 117 283q121 119 298 119t292 -115v94h151v-770h-151v94q-114 -110 -288.5 -110t-296.5 115t-122 290zM201 1072.5q0 -114.5 82.5 -193t197 -78.5t198 80t83.5 190t-82.5 190t-198 80t-198 -77t-82.5 -191.5z" />
<glyph unicode="&#xab;" horiz-adv-x="1032" d="M127 551l248 311h149l-241 -313l241 -311h-149zM481 551l248 311h152l-244 -313l244 -311h-152z" />
<glyph unicode="&#xac;" horiz-adv-x="1706" d="M254 721v139h1198v-502h-137v363h-1061z" />
<glyph unicode="&#xad;" horiz-adv-x="678" d="M90 457v184h498v-184h-498z" />
<glyph unicode="&#xae;" horiz-adv-x="1706" d="M117 727q0 146 57.5 282.5t165.5 245.5q205 209 512 209q311 0 526 -219q103 -104 158 -238t55 -283q0 -306 -215 -515q-109 -106 -244.5 -162.5t-281.5 -56.5q-301 0 -518 221q-215 217 -215 516zM213 728q0 -259 188 -449q90 -92 206.5 -141.5t243.5 -49.5 q260 0 451 185t191 454t-185 455t-453.5 186t-446.5 -182q-94 -95 -144.5 -214t-50.5 -244zM557 324v835h315q349 0 349 -229q0 -89 -50 -148t-141 -77l187 -381h-177l-170 356h-155v-356h-158zM715 780h133q113 0 162 31.5t49 104.5t-51 107t-164 34h-129v-277z" />
<glyph unicode="&#xaf;" d="M242 1335v140h540v-140h-540z" />
<glyph unicode="&#xb0;" horiz-adv-x="674" d="M49 1167q0 120 84.5 204.5t203.5 84.5t203.5 -84.5t84.5 -204t-84 -203t-205 -83.5t-204 83t-83 203zM143 1169q0 -81 57 -138.5t138 -57.5t136.5 57.5t55.5 138.5t-55.5 137t-136.5 56t-138 -56t-57 -137z" />
<glyph unicode="&#xb1;" horiz-adv-x="1706" d="M254 29v141h1198v-141h-1198zM254 713v139h528v340h142v-340h528v-139h-528v-340h-142v340h-528z" />
<glyph unicode="&#xb2;" horiz-adv-x="774" d="M82 582v120l335 295l4 3q134 117 134 189t-49.5 117.5t-126.5 45.5t-121.5 -46t-44.5 -128v-11h-131v2q0 137 85.5 219t218.5 82t219.5 -78.5t86.5 -191.5q0 -64 -32 -120.5t-107 -121.5l-299 -256h436v-120h-608z" />
<glyph unicode="&#xb3;" horiz-adv-x="774" d="M70 850h128q4 -74 52.5 -121t125 -47t130 48.5t53.5 125t-55 121.5t-154 45h-35l1 119q8 -2 28 -2q150 0 150 110q0 46 -32 76.5t-82.5 30.5t-81.5 -28t-34 -78h-127q5 101 73 162t172.5 61t174.5 -64t70 -162t-95 -153q77 -28 118.5 -88.5t41.5 -145.5 q0 -125 -89.5 -210t-227 -85t-220 75.5t-85.5 209.5z" />
<glyph unicode="&#xb4;" d="M369 1241l204 348h201l-285 -348h-120z" />
<glyph unicode="&#xb5;" horiz-adv-x="1151" d="M-113 -428l318 1499h180l-129 -600q-14 -64 -14 -148t52 -138t148 -54q132 0 208.5 92.5t123.5 311.5l115 536h178l-156 -732q-1 -6 -11.5 -56.5t-10.5 -81.5q0 -62 72 -62q18 0 32 2l-31 -143q-48 -10 -109.5 -10t-95.5 29t-52 100q-89 -131 -258.5 -131t-268.5 116 l-110 -530h-181z" />
<glyph unicode="&#xb6;" d="M66 1133q0 154 107.5 250t285.5 96h499v-86h-120v-1393h-111v1393h-176v-1393h-113v782q-170 8 -271 102.5t-101 248.5z" />
<glyph unicode="&#xb7;" horiz-adv-x="586" d="M180 728.5q0 46.5 33 79t79.5 32.5t78.5 -32.5t32 -79t-32 -79.5t-78.5 -33t-79.5 33t-33 79.5z" />
<glyph unicode="&#xb8;" d="M256 -326q171 -39 246 -39q121 0 121 84t-134 84l-53 -1v198h76v-102h29q223 0 223 -181q0 -91 -64 -139.5t-175.5 -48.5t-268.5 45v100z" />
<glyph unicode="&#xb9;" horiz-adv-x="772" d="M160 1352v104h309v-874h-141v770h-168z" />
<glyph unicode="&#xba;" horiz-adv-x="932" d="M41 1072q0 167 117 280q129 129 301 129q178 0 307 -119q125 -123 125 -281q0 -167 -115 -286q-129 -129 -309 -129q-183 0 -303 118q-123 117 -123 288zM195 1072q0 -116 77.5 -192.5t193.5 -76.5t193.5 77t77.5 194t-77.5 193t-193 76t-193.5 -77.5t-78 -193.5z" />
<glyph unicode="&#xbb;" horiz-adv-x="1032" d="M152 238l243 311l-243 313h151l248 -311l-248 -313h-151zM508 238l242 311l-242 313h149l248 -311l-248 -313h-149z" />
<glyph unicode="&#xbc;" horiz-adv-x="1819" d="M154 1360v96h295v-815h-136v719h-159zM395 -29l881 1514h143l-878 -1514h-146zM1135 141v105l403 569h129v-569h92v-105h-92v-141h-129v141h-403zM1264 246h274v401z" />
<glyph unicode="&#xbd;" horiz-adv-x="1819" d="M154 1360v96h295v-815h-136v719h-159zM395 -29l881 1514h143l-878 -1514h-146zM1157 0v113l322 274l2 2q129 111 129 178.5t-47 109.5t-121 42t-117 -43t-43 -119v-10h-125v2q0 127 81.5 203.5t208.5 76.5t210.5 -73.5t83.5 -177.5q0 -61 -31 -113.5t-102 -112.5 l-287 -239h416v-113h-580z" />
<glyph unicode="&#xbe;" horiz-adv-x="1819" d="M66 891h124q4 -69 50.5 -112.5t118.5 -43.5t122.5 45.5t50.5 117t-51.5 113.5t-146.5 42q-21 0 -33 -2v112q12 -2 29 -2q141 0 141 103q0 43 -30.5 71.5t-78 28.5t-77.5 -27t-33 -73h-121q5 95 69.5 152t164.5 57t166.5 -60t66.5 -150t-90 -145q74 -26 114 -82.5 t40 -134.5q0 -116 -85.5 -196t-217.5 -80t-211 70t-82 196zM395 -29l881 1514h143l-878 -1514h-146zM1135 141v105l403 569h129v-569h92v-105h-92v-141h-129v141h-403zM1264 246h274v401z" />
<glyph unicode="&#xbf;" horiz-adv-x="995" d="M92 392q0 183 187 370q88 91 119.5 159t35.5 154h203q-4 -206 -143 -375q-23 -26 -68 -72q-123 -122 -123 -227.5t66 -170t169 -64.5t163 68t63 183l198 1q-3 -196 -126.5 -321.5t-309.5 -125.5t-310 122t-124 299zM440 1221v235h197v-235h-197z" />
<glyph unicode="&#xc0;" horiz-adv-x="1233" d="M-63 0l569 1456h205l569 -1456h-231l-160 424h-565l-164 -424h-223zM346 1939h201l204 -348h-120zM399 629h414l-205 553z" />
<glyph unicode="&#xc1;" horiz-adv-x="1233" d="M-63 0l569 1456h205l569 -1456h-231l-160 424h-565l-164 -424h-223zM399 629h414l-205 553zM465 1591l204 348h201l-285 -348h-120z" />
<glyph unicode="&#xc2;" horiz-adv-x="1233" d="M-63 0l569 1456h205l569 -1456h-231l-160 424h-565l-164 -424h-223zM313 1591l197 348h196l197 -348h-123l-172 229l-174 -229h-121zM399 629h414l-205 553z" />
<glyph unicode="&#xc3;" horiz-adv-x="1233" d="M-63 0l569 1456h205l569 -1456h-231l-160 424h-565l-164 -424h-223zM315 1636q18 100 68 153.5t125 53.5q35 0 59 -8l99 -29q30 -8 53 -8q67 0 94 70h88q-20 -101 -70.5 -154t-126.5 -53q-29 0 -65 10l-97 27q-26 8 -49 8q-62 0 -90 -70h-88zM399 629h414l-205 553z" />
<glyph unicode="&#xc4;" horiz-adv-x="1233" d="M-63 0l569 1456h205l569 -1456h-231l-160 424h-565l-164 -424h-223zM338 1650v209h184v-209h-184zM399 629h414l-205 553zM694 1650v209h184v-209h-184z" />
<glyph unicode="&#xc5;" horiz-adv-x="1233" d="M-63 0l567 1448h207l569 -1448h-236l-155 424h-565l-164 -424h-223zM367 1738.5q0 97.5 68 165.5t165 68t165.5 -68t68.5 -165t-68.5 -165.5t-166 -68.5t-165 68t-67.5 165.5zM399 629h414l-207 553zM485 1740.5q0 -49.5 34 -84t83.5 -34.5t85 35t35.5 83.5t-36 85 t-84 36.5t-83 -36t-35 -85.5z" />
<glyph unicode="&#xc6;" horiz-adv-x="1720" d="M-123 0l807 1456h905v-194h-547v-435h547v-190h-547v-436h547v-201h-755v406h-502l-221 -406h-234zM444 606h390v656h-33z" />
<glyph unicode="&#xc7;" horiz-adv-x="1540" d="M61 737q0 309 228 537q215 211 514 211q224 0 393.5 -106t255.5 -300h-248q-141 195 -403 195q-213 0 -361 -152q-75 -77 -117 -179t-42 -212t38 -211.5t111 -177.5t171 -119t200 -43q257 0 391 185h260q-95 -191 -262.5 -292.5t-388.5 -101.5q-329 0 -551 250 q-189 209 -189 516zM535 -326q171 -39 246 -39q121 0 121 84t-134 84l-53 -1v198h76v-102h29q223 0 223 -181q0 -91 -64 -139.5t-175.5 -48.5t-268.5 45v100z" />
<glyph unicode="&#xc8;" horiz-adv-x="1014" d="M127 0v1456h756v-194h-545v-435h545v-190h-545v-436h545v-201h-756zM242 1939h201l204 -348h-120z" />
<glyph unicode="&#xc9;" horiz-adv-x="1014" d="M127 0v1456h756v-194h-545v-435h545v-190h-545v-436h545v-201h-756zM361 1591l204 348h201l-285 -348h-120z" />
<glyph unicode="&#xca;" horiz-adv-x="1014" d="M127 0v1456h756v-194h-545v-435h545v-190h-545v-436h545v-201h-756zM209 1591l197 348h196l197 -348h-123l-172 229l-174 -229h-121z" />
<glyph unicode="&#xcb;" horiz-adv-x="1014" d="M127 0v1456h756v-194h-545v-435h545v-190h-545v-436h545v-201h-756zM234 1650v209h184v-209h-184zM590 1650v209h184v-209h-184z" />
<glyph unicode="&#xcc;" horiz-adv-x="465" d="M-29 1939h201l204 -348h-120zM127 0v1456h211v-1456h-211z" />
<glyph unicode="&#xcd;" horiz-adv-x="465" d="M90 1591l204 348h201l-285 -348h-120zM127 0v1456h211v-1456h-211z" />
<glyph unicode="&#xce;" horiz-adv-x="465" d="M-62 1591l197 348h196l197 -348h-123l-172 229l-174 -229h-121zM127 0v1456h211v-1456h-211z" />
<glyph unicode="&#xcf;" horiz-adv-x="465" d="M-37 1650v209h184v-209h-184zM127 0v1456h211v-1456h-211zM319 1650v209h184v-209h-184z" />
<glyph unicode="&#xd0;" horiz-adv-x="1407" d="M-10 647v176h151v633h467q329 0 530 -203t201 -530q0 -187 -74.5 -340t-215.5 -254q-96 -69 -205 -99t-293 -30h-410v647h-151zM346 195h256q244 0 385 141.5t141 388.5t-150.5 389.5t-416.5 142.5h-215v-434h340v-176h-340v-452z" />
<glyph unicode="&#xd1;" horiz-adv-x="1384" d="M127 0v1456h217l715 -1102l-10 1102h208v-1456h-202l-731 1135l14 -1135h-211zM399 1636q18 100 68 153.5t125 53.5q35 0 59 -8l99 -29q30 -8 53 -8q67 0 94 70h88q-20 -101 -70.5 -154t-126.5 -53q-29 0 -65 10l-97 27q-26 8 -49 8q-62 0 -90 -70h-88z" />
<glyph unicode="&#xd2;" horiz-adv-x="1612" d="M61 738q0 312 228 536q215 211 514 211q305 0 522 -213q223 -219 223 -535q0 -312 -192 -520q-228 -246 -555 -246q-329 0 -551 250q-189 209 -189 517zM281 731q0 -110 38 -211.5t111 -177.5t171 -119t200 -43q226 0 378 160.5t152 398.5q0 204 -143 361 q-162 174 -387 174q-213 0 -361 -152q-75 -77 -117 -179t-42 -212zM545 1939h201l204 -348h-120z" />
<glyph unicode="&#xd3;" horiz-adv-x="1612" d="M61 738q0 312 228 536q215 211 514 211q305 0 522 -213q223 -219 223 -535q0 -312 -192 -520q-228 -246 -555 -246q-329 0 -551 250q-189 209 -189 517zM281 731q0 -110 38 -211.5t111 -177.5t171 -119t200 -43q226 0 378 160.5t152 398.5q0 204 -143 361 q-162 174 -387 174q-213 0 -361 -152q-75 -77 -117 -179t-42 -212zM664 1591l204 348h201l-285 -348h-120z" />
<glyph unicode="&#xd4;" horiz-adv-x="1612" d="M61 738q0 312 228 536q215 211 514 211q305 0 522 -213q223 -219 223 -535q0 -312 -192 -520q-228 -246 -555 -246q-329 0 -551 250q-189 209 -189 517zM281 731q0 -110 38 -211.5t111 -177.5t171 -119t200 -43q226 0 378 160.5t152 398.5q0 204 -143 361 q-162 174 -387 174q-213 0 -361 -152q-75 -77 -117 -179t-42 -212zM512 1591l197 348h196l197 -348h-123l-172 229l-174 -229h-121z" />
<glyph unicode="&#xd5;" horiz-adv-x="1612" d="M61 738q0 312 228 536q215 211 514 211q305 0 522 -213q223 -219 223 -535q0 -312 -192 -520q-228 -246 -555 -246q-329 0 -551 250q-189 209 -189 517zM281 731q0 -110 38 -211.5t111 -177.5t171 -119t200 -43q226 0 378 160.5t152 398.5q0 204 -143 361 q-162 174 -387 174q-213 0 -361 -152q-75 -77 -117 -179t-42 -212zM514 1636q18 100 68 153.5t125 53.5q35 0 59 -8l99 -29q30 -8 53 -8q67 0 94 70h88q-20 -101 -70.5 -154t-126.5 -53q-29 0 -65 10l-97 27q-26 8 -49 8q-62 0 -90 -70h-88z" />
<glyph unicode="&#xd6;" horiz-adv-x="1612" d="M61 738q0 312 228 536q215 211 514 211q305 0 522 -213q223 -219 223 -535q0 -312 -192 -520q-228 -246 -555 -246q-329 0 -551 250q-189 209 -189 517zM281 731q0 -110 38 -211.5t111 -177.5t171 -119t200 -43q226 0 378 160.5t152 398.5q0 204 -143 361 q-162 174 -387 174q-213 0 -361 -152q-75 -77 -117 -179t-42 -212zM537 1650v209h184v-209h-184zM893 1650v209h184v-209h-184z" />
<glyph unicode="&#xd7;" horiz-adv-x="1706" d="M293 141l469 469l-469 469l98 99l469 -469l469 469l98 -99l-469 -469l469 -469l-98 -96l-469 467l-469 -467z" />
<glyph unicode="&#xd8;" horiz-adv-x="1612" d="M14 -33l224 264q-177 224 -177 506q0 309 228 537q209 209 514 209q236 0 407 -119l193 221l133 -108l-193 -228q205 -207 205 -512q0 -312 -192 -520q-228 -246 -568 -246q-230 0 -417 138l-224 -259zM279 719q0 -175 102 -322l688 801q-123 76 -268 76 q-220 0 -371 -160.5t-151 -394.5zM510 272q142 -92 291 -92q226 0 378 160.5t152 398.5q0 197 -131 342z" />
<glyph unicode="&#xd9;" horiz-adv-x="1157" d="M113 532v924h211v-926q0 -198 59 -275t197.5 -77t194.5 78.5t56 273.5v926h211v-924q0 -148 -16.5 -227t-54.5 -137q-130 -197 -383 -197q-140 0 -236 47t-166 148q-39 58 -56 130t-17 236zM318 1939h201l204 -348h-120z" />
<glyph unicode="&#xda;" horiz-adv-x="1157" d="M113 532v924h211v-926q0 -198 59 -275t197.5 -77t194.5 78.5t56 273.5v926h211v-924q0 -148 -16.5 -227t-54.5 -137q-130 -197 -383 -197q-140 0 -236 47t-166 148q-39 58 -56 130t-17 236zM437 1591l204 348h201l-285 -348h-120z" />
<glyph unicode="&#xdb;" horiz-adv-x="1157" d="M113 532v924h211v-926q0 -198 59 -275t197.5 -77t194.5 78.5t56 273.5v926h211v-924q0 -148 -16.5 -227t-54.5 -137q-130 -197 -383 -197q-140 0 -236 47t-166 148q-39 58 -56 130t-17 236zM285 1591l197 348h196l197 -348h-123l-172 229l-174 -229h-121z" />
<glyph unicode="&#xdc;" horiz-adv-x="1157" d="M113 532v924h211v-926q0 -198 59 -275t197.5 -77t194.5 78.5t56 273.5v926h211v-924q0 -148 -16.5 -227t-54.5 -137q-130 -197 -383 -197q-140 0 -236 47t-166 148q-39 58 -56 130t-17 236zM310 1650v209h184v-209h-184zM666 1650v209h184v-209h-184z" />
<glyph unicode="&#xdd;" horiz-adv-x="1010" d="M-49 1456h235l320 -700l319 700h234l-451 -932v-524h-211v537zM363 1591l204 348h201l-285 -348h-120z" />
<glyph unicode="&#xde;" horiz-adv-x="1053" d="M127 0v1456h209v-270h129q149 0 221 -14q184 -36 272 -198q54 -99 54 -214q0 -202 -137.5 -323.5t-370.5 -121.5h-168v-315h-209zM336 510h153q163 0 236.5 57t73.5 181t-74.5 183.5t-228.5 59.5h-160v-481z" />
<glyph unicode="&#xdf;" horiz-adv-x="1200" d="M115 0v969q0 258 101 383t300 125t315.5 -111.5t116.5 -290.5q0 -92 -34 -160t-97 -100q156 -42 238 -144t82 -253q0 -191 -123 -319t-305 -128q-281 0 -402 262v-233h-192zM307 381h158q21 -102 82.5 -160.5t153 -58.5t164.5 73.5t73 172.5q0 256 -346 256q-14 0 -32 -1 l-52 -3v171h4q110 0 173 62t63 165t-62 167.5t-167.5 64.5t-158.5 -73t-53 -240v-596z" />
<glyph unicode="&#xe0;" horiz-adv-x="1319" d="M61 555q0 239 158 403q162 170 397 170t390 -161v133h200v-1100h-200v135q-154 -160 -385.5 -160t-395.5 165.5t-164 414.5zM266 553q0 -163 110.5 -276t263.5 -113t264.5 113.5t111.5 270.5t-110.5 272.5t-264.5 115.5t-264.5 -110t-110.5 -273zM447 1589h201l204 -348 h-120z" />
<glyph unicode="&#xe1;" horiz-adv-x="1319" d="M61 555q0 239 158 403q162 170 397 170t390 -161v133h200v-1100h-200v135q-154 -160 -385.5 -160t-395.5 165.5t-164 414.5zM266 553q0 -163 110.5 -276t263.5 -113t264.5 113.5t111.5 270.5t-110.5 272.5t-264.5 115.5t-264.5 -110t-110.5 -273zM566 1241l204 348h201 l-285 -348h-120z" />
<glyph unicode="&#xe2;" horiz-adv-x="1319" d="M61 555q0 239 158 403q162 170 397 170t390 -161v133h200v-1100h-200v135q-154 -160 -385.5 -160t-395.5 165.5t-164 414.5zM266 553q0 -163 110.5 -276t263.5 -113t264.5 113.5t111.5 270.5t-110.5 272.5t-264.5 115.5t-264.5 -110t-110.5 -273zM414 1241l197 348h196 l197 -348h-123l-172 229l-174 -229h-121z" />
<glyph unicode="&#xe3;" horiz-adv-x="1319" d="M61 555q0 239 158 403q162 170 397 170t390 -161v133h200v-1100h-200v135q-154 -160 -385.5 -160t-395.5 165.5t-164 414.5zM266 553q0 -163 110.5 -276t263.5 -113t264.5 113.5t111.5 270.5t-110.5 272.5t-264.5 115.5t-264.5 -110t-110.5 -273zM416 1286 q18 100 68 153.5t125 53.5q35 0 59 -8l99 -29q30 -8 53 -8q67 0 94 70h88q-20 -101 -70.5 -154t-126.5 -53q-29 0 -65 10l-97 27q-26 8 -49 8q-62 0 -90 -70h-88z" />
<glyph unicode="&#xe4;" horiz-adv-x="1319" d="M61 555q0 239 158 403q162 170 397 170t390 -161v133h200v-1100h-200v135q-154 -160 -385.5 -160t-395.5 165.5t-164 414.5zM266 553q0 -163 110.5 -276t263.5 -113t264.5 113.5t111.5 270.5t-110.5 272.5t-264.5 115.5t-264.5 -110t-110.5 -273zM439 1300v209h184v-209 h-184zM795 1300v209h184v-209h-184z" />
<glyph unicode="&#xe5;" horiz-adv-x="1319" d="M61 555q0 239 158 403q162 170 397 170t390 -161v133h200v-1100h-200v135q-154 -160 -385.5 -160t-395.5 165.5t-164 414.5zM266 553q0 -163 110.5 -276t263.5 -113t264.5 113.5t111.5 270.5t-110.5 272.5t-264.5 115.5t-264.5 -110t-110.5 -273zM479 1417.5 q0 97.5 68 165.5t165 68t165.5 -68.5t68.5 -165t-68 -164t-165.5 -67.5t-165.5 67t-68 164.5zM596 1421q0 -49 35 -83.5t84 -34.5t84 34.5t35 83t-35.5 84t-83.5 35.5t-83.5 -35t-35.5 -84z" />
<glyph unicode="&#xe6;" horiz-adv-x="2191" d="M61 555q0 239 158 403q165 175 395 175t394 -166v133h176v-125q170 158 389 158q138 0 260.5 -67.5t204.5 -188.5q94 -147 94 -369v-31h-924q25 -139 124 -225t235 -86q98 0 179.5 48t129.5 134h221q-76 -183 -212 -280t-316 -97q-227 0 -385 152v-123h-178v135 q-160 -164 -369 -164q-248 0 -412 167t-164 417zM266 553q0 -163 110.5 -275t264 -112t264.5 112.5t111 270t-111 274.5t-264 117t-264 -112t-111 -275zM1219 655h702q-37 136 -128 210.5t-219.5 74.5t-224 -76.5t-130.5 -208.5z" />
<glyph unicode="&#xe7;" horiz-adv-x="1241" d="M57 550q0 230 156 398q173 185 418 185q189 0 328 -104.5t202 -293.5h-217q-103 201 -330 201q-147 0 -249.5 -111t-102.5 -275t104 -274t259 -110q104 0 188 54.5t131 154.5h217q-69 -199 -205 -301.5t-331 -102.5q-242 0 -404 170q-77 81 -120.5 188.5t-43.5 220.5z M365 -326q171 -39 246 -39q121 0 121 84t-134 84l-53 -1v198h76v-102h29q223 0 223 -181q0 -91 -64 -139.5t-175.5 -48.5t-268.5 45v100z" />
<glyph unicode="&#xe8;" horiz-adv-x="1245" d="M55 553q0 231 156 399q165 181 410 181q145 0 269.5 -67.5t205.5 -188.5q94 -147 94 -369v-31h-926q25 -138 124.5 -223.5t236.5 -85.5q98 0 178.5 47t128.5 133h223q-76 -183 -212.5 -280t-317.5 -97q-242 0 -406 172q-77 81 -120.5 188.5t-43.5 221.5zM270 655h703 q-37 136 -128 210.5t-219.5 74.5t-224 -76.5t-131.5 -208.5zM371 1589h201l204 -348h-120z" />
<glyph unicode="&#xe9;" horiz-adv-x="1245" d="M55 553q0 231 156 399q165 181 410 181q145 0 269.5 -67.5t205.5 -188.5q94 -147 94 -369v-31h-926q25 -138 124.5 -223.5t236.5 -85.5q98 0 178.5 47t128.5 133h223q-76 -183 -212.5 -280t-317.5 -97q-242 0 -406 172q-77 81 -120.5 188.5t-43.5 221.5zM270 655h703 q-37 136 -128 210.5t-219.5 74.5t-224 -76.5t-131.5 -208.5zM490 1241l204 348h201l-285 -348h-120z" />
<glyph unicode="&#xea;" horiz-adv-x="1245" d="M55 553q0 231 156 399q165 181 410 181q145 0 269.5 -67.5t205.5 -188.5q94 -147 94 -369v-31h-926q25 -138 124.5 -223.5t236.5 -85.5q98 0 178.5 47t128.5 133h223q-76 -183 -212.5 -280t-317.5 -97q-242 0 -406 172q-77 81 -120.5 188.5t-43.5 221.5zM270 655h703 q-37 136 -128 210.5t-219.5 74.5t-224 -76.5t-131.5 -208.5zM338 1241l197 348h196l197 -348h-123l-172 229l-174 -229h-121z" />
<glyph unicode="&#xeb;" horiz-adv-x="1245" d="M55 553q0 231 156 399q165 181 410 181q145 0 269.5 -67.5t205.5 -188.5q94 -147 94 -369v-31h-926q25 -138 124.5 -223.5t236.5 -85.5q98 0 178.5 47t128.5 133h223q-76 -183 -212.5 -280t-317.5 -97q-242 0 -406 172q-77 81 -120.5 188.5t-43.5 221.5zM270 655h703 q-37 136 -128 210.5t-219.5 74.5t-224 -76.5t-131.5 -208.5zM363 1300v209h184v-209h-184zM719 1300v209h184v-209h-184z" />
<glyph unicode="&#xec;" horiz-adv-x="432" d="M-45 1589h201l204 -348h-120zM117 0v1100h196v-1100h-196z" />
<glyph unicode="&#xed;" horiz-adv-x="432" d="M74 1241l204 348h201l-285 -348h-120zM117 0v1100h196v-1100h-196z" />
<glyph unicode="&#xee;" horiz-adv-x="432" d="M-78 1241l197 348h196l197 -348h-123l-172 229l-174 -229h-121zM117 0v1100h196v-1100h-196z" />
<glyph unicode="&#xef;" horiz-adv-x="432" d="M-53 1300v209h184v-209h-184zM117 0v1100h196v-1100h-196zM303 1300v209h184v-209h-184z" />
<glyph unicode="&#xf0;" horiz-adv-x="1241" d="M111 498q0 207 139 356q154 164 364 164q148 0 258 -88q-76 153 -182 248l-291 -107l-45 115l221 84q-31 22 -131 71l60 127q147 -63 244 -135l292 109l54 -117l-226 -86q267 -285 267 -666q0 -272 -142 -437t-364.5 -165t-370 152.5t-147.5 374.5zM295 493.5 q0 -147.5 93 -247t233 -99.5t232.5 100t92.5 251t-94.5 247.5t-232.5 96.5t-231 -100.5t-93 -248z" />
<glyph unicode="&#xf1;" horiz-adv-x="1176" d="M117 0v1100h190v-125q120 143 321.5 143t317 -127t115.5 -364v-627h-199v584q0 175 -65 259.5t-207 84.5t-208.5 -99.5t-66.5 -328.5v-500h-198zM307 1286q18 100 68 153.5t125 53.5q35 0 59 -8l99 -29q30 -8 53 -8q67 0 94 70h88q-20 -101 -70.5 -154t-126.5 -53 q-29 0 -65 10l-97 27q-26 8 -49 8q-62 0 -90 -70h-88z" />
<glyph unicode="&#xf2;" horiz-adv-x="1241" d="M53 552q0 234 156 398q173 185 403 185q240 0 408 -170q168 -172 168 -402q0 -113 -40.5 -220t-119.5 -193q-165 -181 -405 -181q-242 0 -406 172q-77 81 -120.5 188.5t-43.5 222.5zM258 551.5q0 -165.5 104.5 -275.5t259 -110t258 110.5t103.5 277t-103.5 275.5 t-258 109t-259 -110.5t-104.5 -276zM363 1589h201l204 -348h-120z" />
<glyph unicode="&#xf3;" horiz-adv-x="1241" d="M53 552q0 234 156 398q173 185 403 185q240 0 408 -170q168 -172 168 -402q0 -113 -40.5 -220t-119.5 -193q-165 -181 -405 -181q-242 0 -406 172q-77 81 -120.5 188.5t-43.5 222.5zM258 551.5q0 -165.5 104.5 -275.5t259 -110t258 110.5t103.5 277t-103.5 275.5 t-258 109t-259 -110.5t-104.5 -276zM482 1241l204 348h201l-285 -348h-120z" />
<glyph unicode="&#xf4;" horiz-adv-x="1241" d="M53 552q0 234 156 398q173 185 403 185q240 0 408 -170q168 -172 168 -402q0 -113 -40.5 -220t-119.5 -193q-165 -181 -405 -181q-242 0 -406 172q-77 81 -120.5 188.5t-43.5 222.5zM258 551.5q0 -165.5 104.5 -275.5t259 -110t258 110.5t103.5 277t-103.5 275.5 t-258 109t-259 -110.5t-104.5 -276zM330 1241l197 348h196l197 -348h-123l-172 229l-174 -229h-121z" />
<glyph unicode="&#xf5;" horiz-adv-x="1241" d="M53 552q0 234 156 398q173 185 403 185q240 0 408 -170q168 -172 168 -402q0 -113 -40.5 -220t-119.5 -193q-165 -181 -405 -181q-242 0 -406 172q-77 81 -120.5 188.5t-43.5 222.5zM258 551.5q0 -165.5 104.5 -275.5t259 -110t258 110.5t103.5 277t-103.5 275.5 t-258 109t-259 -110.5t-104.5 -276zM332 1286q18 100 68 153.5t125 53.5q35 0 59 -8l99 -29q30 -8 53 -8q67 0 94 70h88q-20 -101 -70.5 -154t-126.5 -53q-29 0 -65 10l-97 27q-26 8 -49 8q-62 0 -90 -70h-88z" />
<glyph unicode="&#xf6;" horiz-adv-x="1241" d="M53 552q0 234 156 398q173 185 403 185q240 0 408 -170q168 -172 168 -402q0 -113 -40.5 -220t-119.5 -193q-165 -181 -405 -181q-242 0 -406 172q-77 81 -120.5 188.5t-43.5 222.5zM258 551.5q0 -165.5 104.5 -275.5t259 -110t258 110.5t103.5 277t-103.5 275.5 t-258 109t-259 -110.5t-104.5 -276zM355 1300v209h184v-209h-184zM711 1300v209h184v-209h-184z" />
<glyph unicode="&#xf7;" horiz-adv-x="1706" d="M254 541v139h1198v-139h-1198zM729 241q0 52 37 89t88 37t88 -37t37 -88.5t-36.5 -88t-89 -36.5t-88.5 36t-36 88zM729 979q0 52 37 89.5t88 37.5t88 -37.5t37 -89t-36.5 -88.5t-88.5 -37t-88.5 36.5t-36.5 88.5z" />
<glyph unicode="&#xf8;" horiz-adv-x="1241" d="M33 -31l162 197q-140 172 -140 381q0 237 156 401q170 182 410 182q167 0 303 -90l161 197l125 -94l-166 -207q146 -170 146 -375q0 -113 -40.5 -220t-118.5 -193q-163 -181 -415 -181q-157 0 -301 90l-161 -194zM260 547q0 -118 66 -225l471 567q-90 47 -174 47 q-153 0 -258 -111.5t-105 -277.5zM444 209q82 -47 170 -47q165 0 268 110t103 287q0 115 -70 223z" />
<glyph unicode="&#xf9;" horiz-adv-x="1157" d="M111 467v633h198v-576q0 -356 252 -356q161 0 236 141q22 42 31.5 100t9.5 187v504h196v-1100h-190v123q-116 -148 -310.5 -148t-308.5 129t-114 363zM311 1589h201l204 -348h-120z" />
<glyph unicode="&#xfa;" horiz-adv-x="1157" d="M111 467v633h198v-576q0 -356 252 -356q161 0 236 141q22 42 31.5 100t9.5 187v504h196v-1100h-190v123q-116 -148 -310.5 -148t-308.5 129t-114 363zM430 1241l204 348h201l-285 -348h-120z" />
<glyph unicode="&#xfb;" horiz-adv-x="1157" d="M111 467v633h198v-576q0 -356 252 -356q161 0 236 141q22 42 31.5 100t9.5 187v504h196v-1100h-190v123q-116 -148 -310.5 -148t-308.5 129t-114 363zM278 1241l197 348h196l197 -348h-123l-172 229l-174 -229h-121z" />
<glyph unicode="&#xfc;" horiz-adv-x="1157" d="M111 467v633h198v-576q0 -356 252 -356q161 0 236 141q22 42 31.5 100t9.5 187v504h196v-1100h-190v123q-116 -148 -310.5 -148t-308.5 129t-114 363zM303 1300v209h184v-209h-184zM659 1300v209h184v-209h-184z" />
<glyph unicode="&#xfd;" horiz-adv-x="1049" d="M6 1100h213l297 -819l322 819h213l-592 -1456h-209l153 387zM381 1241l204 348h201l-285 -348h-120z" />
<glyph unicode="&#xfe;" horiz-adv-x="1319" d="M111 -356v1812h198l2 -491q151 159 369 159q238 0 399 -151q83 -78 130.5 -189t47.5 -225q0 -254 -160 -421t-394 -167t-394 162v-489h-198zM303 551.5q0 -157.5 109.5 -272.5t263.5 -115t264.5 110t110.5 273t-110 276t-262.5 113t-264 -113.5t-111.5 -271z" />
<glyph unicode="&#xff;" horiz-adv-x="1049" d="M6 1100h213l297 -819l322 819h213l-592 -1456h-209l153 387zM254 1300v209h184v-209h-184zM610 1300v209h184v-209h-184z" />
<glyph unicode="&#x152;" horiz-adv-x="2179" d="M61 737q0 309 222 537q209 211 497 211q158 0 281.5 -52.5t230.5 -164.5v188h756v-194h-545v-435h545v-190h-545v-436h545v-201h-756v188q-203 -217 -514 -217q-318 0 -534 250q-183 211 -183 516zM274 729.5q0 -228.5 144 -385.5q73 -78 168 -121t192 -43 q219 0 366.5 160.5t147.5 398.5q0 204 -137 365q-158 170 -377 170q-202 0 -353 -158t-151 -386.5z" />
<glyph unicode="&#x153;" horiz-adv-x="2163" d="M55 549q0 233 156 401q171 183 403 183q295 0 467 -244q182 244 444 244t421 -173.5t159 -453.5v-29h-923q24 -141 122.5 -227t216.5 -86q228 0 328 180h222q-160 -373 -529 -373q-296 0 -461 240q-175 -240 -456 -240q-244 0 -406 170q-78 81 -121 187.5t-43 220.5z M260 549.5q0 -165.5 104.5 -275.5t259 -110t258 110.5t103.5 277t-103.5 277.5t-257.5 111t-259 -112.5t-105 -278zM1188 655h702q-37 135 -128 210t-218.5 75t-224 -77t-131.5 -208z" />
<glyph unicode="&#x178;" horiz-adv-x="1010" d="M-49 1456h235l320 -700l319 700h234l-451 -932v-524h-211v537zM236 1650v209h184v-209h-184zM592 1650v209h184v-209h-184z" />
<glyph unicode="&#x2c6;" d="M217 1241l197 348h196l197 -348h-123l-172 229l-174 -229h-121z" />
<glyph unicode="&#x2dc;" d="M219 1286q18 100 68 153.5t125 53.5q35 0 59 -8l99 -29q30 -8 53 -8q67 0 94 70h88q-20 -101 -70.5 -154t-126.5 -53q-29 0 -65 10l-97 27q-26 8 -49 8q-62 0 -90 -70h-88z" />
<glyph unicode="&#x2000;" horiz-adv-x="986" />
<glyph unicode="&#x2001;" horiz-adv-x="1972" />
<glyph unicode="&#x2002;" horiz-adv-x="986" />
<glyph unicode="&#x2003;" horiz-adv-x="1972" />
<glyph unicode="&#x2004;" horiz-adv-x="657" />
<glyph unicode="&#x2005;" horiz-adv-x="493" />
<glyph unicode="&#x2006;" horiz-adv-x="328" />
<glyph unicode="&#x2007;" horiz-adv-x="328" />
<glyph unicode="&#x2008;" horiz-adv-x="246" />
<glyph unicode="&#x2009;" horiz-adv-x="394" />
<glyph unicode="&#x200a;" horiz-adv-x="109" />
<glyph unicode="&#x2010;" horiz-adv-x="678" d="M90 457v184h498v-184h-498z" />
<glyph unicode="&#x2011;" horiz-adv-x="678" d="M90 457v184h498v-184h-498z" />
<glyph unicode="&#x2012;" horiz-adv-x="678" d="M90 457v184h498v-184h-498z" />
<glyph unicode="&#x2013;" d="M0 477v144h1024v-144h-1024z" />
<glyph unicode="&#x2014;" horiz-adv-x="2048" d="M0 477v144h2048v-144h-2048z" />
<glyph unicode="&#x2018;" horiz-adv-x="473" d="M135 991v217q0 125 47 188.5t156 88.5v-133q-38 -11 -54 -34t-16 -67v-18h70v-242h-203z" />
<glyph unicode="&#x2019;" horiz-adv-x="473" d="M135 963v131q38 10 54 33t16 67v18h-70v244h203v-217q0 -125 -47 -188t-156 -88z" />
<glyph unicode="&#x201a;" horiz-adv-x="473" d="M135 2v244h203v-217q0 -125 -47 -188.5t-156 -88.5v131q38 11 54 34t16 67v18h-70z" />
<glyph unicode="&#x201c;" horiz-adv-x="807" d="M135 991v217q0 125 47 188.5t156 88.5v-133q-38 -11 -54 -34t-16 -67v-18h70v-242h-203zM467 991v217q0 125 47 188.5t156 88.5v-133q-38 -11 -54 -34t-16 -67v-18h70v-242h-203z" />
<glyph unicode="&#x201d;" horiz-adv-x="807" d="M135 963v131q38 10 54 33t16 67v18h-70v244h203v-217q0 -125 -47 -188t-156 -88zM467 963v131q38 10 54 33t16 67v18h-70v244h203v-217q0 -125 -47 -188t-156 -88z" />
<glyph unicode="&#x201e;" horiz-adv-x="807" d="M135 2v244h203v-217q0 -125 -47 -188.5t-156 -88.5v131q38 11 54 34t16 67v18h-70zM467 2v244h203v-217q0 -125 -47 -188.5t-156 -88.5v131q38 11 54 34t16 67v18h-70z" />
<glyph unicode="&#x2022;" horiz-adv-x="1208" d="M307 762q0 123 87 209t209.5 86t209 -86.5t86.5 -208.5t-87.5 -209.5t-210 -87.5t-208.5 87t-86 210z" />
<glyph unicode="&#x2026;" horiz-adv-x="2048" d="M242 0v246h200v-246h-200zM924 0v246h200v-246h-200zM1608 0v246h200v-246h-200z" />
<glyph unicode="&#x202f;" horiz-adv-x="394" />
<glyph unicode="&#x2039;" horiz-adv-x="678" d="M127 551l248 311h149l-241 -313l241 -311h-149z" />
<glyph unicode="&#x203a;" horiz-adv-x="678" d="M154 238l241 311l-241 313h149l248 -311l-248 -313h-149z" />
<glyph unicode="&#x205f;" horiz-adv-x="493" />
<glyph unicode="&#x2122;" horiz-adv-x="1706" d="M242 1378v80h452v-80h-172v-458h-108v458h-172zM813 920v538h150l151 -385l141 385h150v-538h-98v444l-166 -444h-56l-174 444v-444h-98z" />
<glyph unicode="&#xe000;" horiz-adv-x="1100" d="M0 0v1100h1100v-1100h-1100z" />
</font>
</defs>
</svg>
